<?xml version="1.0" encoding="UTF-8" standalone="no"?>
<!-- Created with Inkscape (http://www.inkscape.org/) -->

<svg
   version="1.1"
   id="svg189"
   xml:space="preserve"
   width="32"
   height="32"
   viewBox="0 0 32 32"
   xmlns="http://www.w3.org/2000/svg"
   xmlns:svg="http://www.w3.org/2000/svg"><defs
     id="defs193"><clipPath
       clipPathUnits="userSpaceOnUse"
       id="clipPath203"><path
         d="M 0,24 H 24 V 0 H 0 Z"
         id="path201" /></clipPath></defs><g
     id="g195"
     transform="matrix(1.3333333,0,0,-1.3333333,0,32)"><g
       id="g197"><g
         id="g199"
         clip-path="url(#clipPath203)"><g
           id="g205"
           transform="translate(16.2427,6.7573)"><path
             d="m 0,0 -2.303,-2.252 c -0.534,-0.523 -1.237,-0.785 -1.94,-0.785 -0.702,0 -1.405,0.262 -1.94,0.785 l -2.295,2.244 c -2.347,2.347 -2.347,6.154 -0.007,8.493 1.133,1.134 2.64,1.758 4.242,1.758 1.602,0 3.109,-0.624 4.243,-1.757 L 0,8.485 C 2.339,6.146 2.339,2.339 0,0 m 5.554,11.664 -7,4.724 c -1.699,1.145 -3.894,1.145 -5.594,0 l -7,-4.724 c -1.379,-0.931 -2.203,-2.48 -2.203,-4.145 v -9.276 c 0,-2.757 2.243,-5 5,-5 h 14 c 2.757,0 5,2.243 5,5 v 9.276 c 0,1.665 -0.823,3.214 -2.203,4.145 M -4.243,3.251 c -0.552,0 -1,0.448 -1,1 0,0.552 0.448,1 1,1 0.553,0 1,-0.448 1,-1 0,-0.552 -0.447,-1 -1,-1 m 0,4.992 c -1.068,0 -2.072,-0.416 -2.828,-1.172 -1.56,-1.559 -1.56,-4.097 0,-5.657 l 2.287,-2.236 c 0.299,-0.292 0.784,-0.291 1.082,0 l 2.296,2.244 c 1.552,1.552 1.552,4.089 -0.008,5.649 -0.756,0.756 -1.76,1.172 -2.829,1.172"
             style="fill:#000000;fill-opacity:1;fill-rule:nonzero;stroke:none"
             id="path207" /></g></g></g></g></svg>
